<mxfile host="app.diagrams.net" modified="2023-08-24T11:41:12.742Z" agent="Mozilla/5.0 (Macintosh; Intel Mac OS X 10_15_7) AppleWebKit/537.36 (KHTML, like Gecko) Chrome/116.0.0.0 Safari/537.36" version="21.6.8" etag="QokoSilK-Bqyz-hGrQV7" type="github">
  <diagram name="第 1 页" id="WYI6UvX2OMg2r4Cb0Y0r">
    <mxGraphModel>
      <root>
        <mxCell id="0" />
        <mxCell id="1" parent="0" />
      </root>
    </mxGraphModel>
  </diagram>
</mxfile>
